<svg version="1.1" id="Layer_1" xmlns="http://www.w3.org/2000/svg" xmlns:xlink="http://www.w3.org/1999/xlink" x="0px" y="0px"
	 width="100%" viewBox="0 0 385 107" enable-background="new 0 0 385 107" xml:space="preserve">
<path fill="#FEFDFD" opacity="1.000000" stroke="none" 
	d="
M277.000000,108.000000 
	C184.666672,108.000000 92.833359,108.000000 1.000025,108.000000 
	C1.000016,72.333351 1.000016,36.666698 1.000008,1.000034 
	C129.333298,1.000023 257.666595,1.000023 385.999939,1.000011 
	C385.999939,36.666630 385.999939,72.333260 385.999969,107.999947 
	C349.833344,108.000000 313.666656,108.000000 277.000000,108.000000 
M177.500458,69.351990 
	C195.166397,69.352013 212.832504,69.314323 230.498138,69.387741 
	C233.582962,69.400551 235.430603,68.843048 233.861664,64.695053 
	C229.044998,64.695053 224.142120,64.695053 218.660675,64.695053 
	C218.660675,46.575714 218.660675,29.014034 218.660675,11.614095 
	C215.304367,11.614095 212.561493,11.614095 209.799500,11.614095 
	C209.508377,13.722179 209.265945,15.477657 209.009369,17.335546 
	C206.125153,17.335546 203.542923,17.335546 200.789719,17.335546 
	C200.434006,15.221601 200.118835,13.348574 199.836472,11.670485 
	C196.744476,11.670485 194.019852,11.670485 191.359894,11.670485 
	C191.079132,13.866306 190.852524,15.638454 190.659286,17.149815 
	C187.597000,17.149815 184.878769,17.149815 182.239685,17.149815 
	C181.919266,14.943447 181.666016,13.199429 181.450806,11.717554 
	C178.190094,11.717554 175.310196,11.717554 172.022461,11.717554 
	C172.022461,29.612326 172.022461,47.040215 172.022461,64.887787 
	C166.847046,64.887787 162.078766,64.887787 157.310501,64.887787 
	C156.994278,65.404716 156.678055,65.921654 156.361847,66.438583 
	C157.575119,67.408768 158.745056,69.145073 160.009155,69.216568 
	C165.491440,69.526634 171.001205,69.350838 177.500458,69.351990 
M94.679893,100.968605 
	C95.862007,98.506638 97.044121,96.044678 98.495888,93.021126 
	C99.088356,96.999908 99.567871,100.220131 100.047394,103.440361 
	C100.636147,103.325600 101.224907,103.210838 101.813667,103.096077 
	C101.813667,97.564766 101.813667,92.033455 101.813667,86.266449 
	C94.705780,85.793129 96.729729,93.133087 92.866524,95.788406 
	C91.761185,93.148277 90.906158,90.462418 89.514359,88.091698 
	C88.940475,87.114166 87.255623,86.581871 85.984238,86.349541 
	C85.612793,86.281670 84.491173,87.928154 84.456200,88.818047 
	C84.293304,92.962830 84.311989,97.120766 84.465141,101.266632 
	C84.493896,102.044960 85.431801,102.789719 85.950165,103.549965 
	C86.334114,103.438187 86.718056,103.326401 87.102005,103.214622 
	C87.323624,100.276543 87.545235,97.338463 87.764877,94.426628 
	C90.048447,96.916344 92.071777,99.122337 94.679893,100.968605 
M14.640841,96.872223 
	C12.282698,93.271797 9.924554,89.671379 7.452632,85.897240 
	C5.094856,90.920029 5.636377,101.329033 8.688471,103.572449 
	C8.929257,100.999161 9.140154,98.745316 9.282387,97.225273 
	C11.082913,98.700157 12.964524,101.441429 14.792508,101.406136 
	C16.673471,101.369804 18.502146,98.625595 20.527344,96.920052 
	C20.828342,99.340881 21.076202,101.334343 21.374735,103.735359 
	C24.728153,100.913055 24.875126,89.174530 21.935596,86.010750 
	C20.951170,87.949188 20.123148,89.849190 19.057064,91.604614 
	C17.946091,93.433952 16.605515,95.123840 14.640841,96.872223 
M256.055756,100.521217 
	C256.994873,99.301979 257.933990,98.082748 259.445679,96.120140 
	C259.806458,99.243553 260.038849,101.255608 260.298462,103.503281 
	C263.655060,101.315018 264.033630,89.665375 261.180725,86.117477 
	C258.938141,89.844612 256.716949,93.536156 254.004654,98.043900 
	C251.197418,93.444534 248.950241,89.762787 246.626999,85.956398 
	C244.113052,90.351250 244.522888,101.118294 247.742813,103.724678 
	C247.954758,101.017197 248.131531,98.758987 248.307983,96.504829 
	C251.605179,97.261856 250.824570,103.397743 256.055756,100.521217 
M125.658890,86.473251 
	C124.477562,87.091171 122.319412,87.644470 122.273567,88.337502 
	C121.977730,92.809639 122.077217,97.314697 122.240021,101.801949 
	C122.260666,102.370987 123.405846,102.899208 124.755455,104.082207 
	C124.961014,99.693008 125.123192,96.229980 125.345474,91.483742 
	C128.001221,95.700020 129.723694,98.933800 131.987152,101.729622 
	C132.683212,102.589401 134.858063,102.251968 136.355774,102.462738 
	C136.355774,97.044060 136.355774,91.625389 136.355774,86.206711 
	C135.655579,86.172173 134.955368,86.137627 134.255173,86.103081 
	C133.845398,89.372597 133.435623,92.642105 132.869736,97.157265 
	C130.158707,93.021393 128.186172,90.012146 125.658890,86.473251 
M50.297619,102.836128 
	C50.637001,99.500351 50.976387,96.164574 51.325912,92.729126 
	C55.769756,95.424644 55.203285,102.900070 62.489235,103.500359 
	C61.990219,97.370583 63.577969,91.648338 61.427422,86.219032 
	C60.890522,86.213043 60.353619,86.207054 59.816715,86.201057 
	C59.559448,89.610695 59.302177,93.020325 58.936077,97.872337 
	C56.843830,94.496574 55.575954,92.229622 54.089027,90.116844 
	C52.725231,88.179039 52.004723,84.795532 47.995430,86.964127 
	C47.995430,90.081772 47.816395,93.240166 48.055355,96.366600 
	C48.228493,98.631836 48.955753,100.854736 50.297619,102.836128 
M218.578201,89.953529 
	C218.578201,94.362251 218.578201,98.770973 218.578201,103.748665 
	C223.247375,103.404732 227.021591,103.126724 230.795822,102.848717 
	C230.786423,102.143219 230.777023,101.437714 230.767624,100.732216 
	C227.798462,100.373413 224.829285,100.014603 221.860107,99.655800 
	C221.865234,99.129448 221.870361,98.603096 221.875473,98.076736 
	C223.325165,97.855530 224.815613,97.774300 226.211380,97.367897 
	C227.287521,97.054565 228.244766,96.332909 229.254868,95.792793 
	C228.250015,95.239136 227.292587,94.548409 226.224091,94.178711 
	C225.477890,93.920517 224.436035,94.369179 223.785278,94.019722 
	C222.953400,93.573021 221.831787,92.631866 221.843521,91.920425 
	C221.856949,91.105118 222.823151,89.948616 223.653824,89.595757 
	C224.648834,89.173103 225.994873,89.652916 227.085052,89.358017 
	C228.324600,89.022690 229.449432,88.263245 230.624130,87.688164 
	C229.423233,87.168823 228.261597,86.374153 227.012039,86.195869 
	C225.221497,85.940392 223.264267,85.776947 221.574646,86.260551 
	C220.407562,86.594597 219.572418,88.088402 218.578201,89.953529 
M373.594849,89.865128 
	C372.464020,88.633385 371.400452,87.320244 370.123840,86.264816 
	C369.948761,86.120064 368.347626,87.097107 368.028778,87.826653 
	C365.872589,92.759949 363.883881,97.766434 361.840973,102.749245 
	C362.038086,103.387253 362.235199,104.025269 362.432312,104.663284 
	C367.632507,97.946930 373.070770,100.336899 379.490967,104.195641 
	C377.138672,98.473747 375.511719,94.516281 373.594849,89.865128 
M281.205933,100.119293 
	C279.549591,96.149246 278.014221,92.122787 276.198090,88.227242 
	C274.779053,85.183487 272.655151,85.153763 271.252777,88.118004 
	C269.010651,92.857201 267.189056,97.795364 265.069061,102.942284 
	C266.186035,103.104279 267.112183,103.505112 267.385040,103.238190 
	C271.449829,99.261597 275.495331,98.955696 279.639648,103.066956 
	C280.253479,102.308609 280.867279,101.550255 281.205933,100.119293 
M111.337967,89.512894 
	C112.831680,89.474846 114.361282,89.618736 115.806267,89.333664 
	C116.742508,89.148972 117.555122,88.337608 118.423134,87.807045 
	C117.603584,87.250923 116.811096,86.269310 115.959618,86.215157 
	C112.897179,86.020370 109.814827,86.138672 106.800095,86.138672 
	C106.800095,92.336243 106.800095,97.704063 106.800095,102.992004 
	C110.911591,102.992004 114.592392,102.992004 118.273201,102.992004 
	C118.404800,102.476891 118.536407,101.961777 118.668007,101.446655 
	C117.287315,101.029724 115.927139,100.513741 114.520447,100.222275 
	C112.950096,99.896919 111.337502,99.775452 109.743294,99.565247 
	C109.759216,99.058655 109.775146,98.552055 109.791069,98.045456 
	C111.114609,97.831879 112.469215,97.729530 113.752327,97.371193 
	C114.874687,97.057739 115.916656,96.456429 116.994141,95.982277 
	C115.887886,95.366562 114.816727,94.312241 113.668549,94.220352 
	C110.659637,93.979538 107.884659,93.958290 111.337967,89.512894 
M169.281342,89.415634 
	C168.384323,88.695557 167.560532,87.849312 166.576981,87.278282 
	C163.182541,85.307579 159.384491,85.378372 157.026077,88.215332 
	C155.170914,90.446938 154.021667,94.012253 154.117630,96.933929 
	C154.243561,100.768234 157.545914,102.740616 161.254517,103.411537 
	C166.954300,104.442696 174.253952,97.906654 169.281342,89.415634 
M208.748154,86.283905 
	C206.172165,86.283905 203.596176,86.283905 200.971603,86.283905 
	C200.971603,92.334320 200.971603,97.722954 200.971603,103.057114 
	C209.510605,104.039688 213.487549,102.374794 215.026947,97.377380 
	C216.395706,92.933922 214.591537,89.379509 208.748154,86.283905 
M36.337921,103.464409 
	C44.195522,103.039665 47.283005,93.828079 42.201893,88.874100 
	C39.333660,86.077637 35.979698,85.199631 32.214321,87.008400 
	C28.531702,88.777405 26.608868,91.748581 27.186445,95.808334 
	C27.856373,100.517212 30.903044,102.989098 36.337921,103.464409 
M310.022980,89.632530 
	C307.539520,93.175446 307.077148,97.185867 310.284241,100.010818 
	C312.462921,101.929909 316.462738,103.589691 318.935547,102.880524 
	C321.647034,102.102921 324.452148,98.825943 325.556488,95.991379 
	C326.911346,92.513817 324.671814,89.239906 321.350281,87.338730 
	C317.354797,85.051811 313.723785,85.921700 310.022980,89.632530 
M342.105804,91.729782 
	C340.016693,85.949303 337.345734,84.919800 329.596558,86.806252 
	C329.596558,92.274620 329.596558,97.687256 329.596558,103.865501 
	C330.835114,102.888466 331.442383,102.606781 331.744934,102.131203 
	C332.453918,101.016777 333.016937,99.809479 333.639038,98.639771 
	C334.719330,99.523376 335.774231,100.440636 336.887207,101.280968 
	C337.970428,102.098839 339.113129,102.837959 340.229706,103.611649 
	C340.834656,103.416496 341.439606,103.221344 342.044586,103.026184 
	C336.297668,98.763916 342.461365,96.097176 342.105804,91.729782 
M176.271255,103.448494 
	C176.933426,103.466721 177.595566,103.486595 178.257782,103.502899 
	C181.471069,103.582001 184.965912,103.794830 185.866104,99.720039 
	C186.856705,95.235985 183.239380,94.306549 180.106216,93.071220 
	C178.958740,92.618805 177.984756,91.726372 176.931641,91.034668 
	C177.080414,90.607841 177.229187,90.181023 177.377960,89.754196 
	C179.459244,89.636574 181.553314,89.616089 183.614365,89.344772 
	C184.270828,89.258362 185.027725,88.613586 185.372452,88.013824 
	C185.556885,87.692963 184.960007,86.431755 184.718781,86.432648 
	C181.954056,86.442757 179.058563,86.173622 176.484833,86.941055 
	C175.318848,87.288727 173.755249,90.260826 174.190399,91.198013 
	C175.102142,93.161606 177.108887,94.699509 178.878647,96.153366 
	C180.093948,97.151726 181.667297,97.714226 183.080597,98.471558 
	C182.959106,98.936340 182.837601,99.401123 182.716095,99.865898 
	C180.678772,99.974365 178.632095,99.996086 176.606552,100.214020 
	C174.260788,100.466408 173.584442,101.466667 176.271255,103.448494 
M355.733673,89.965424 
	C356.919830,90.051750 358.105988,90.138084 360.538696,90.315140 
	C356.693634,85.715805 353.221710,85.235359 349.428284,87.113441 
	C345.554626,89.031242 343.897919,92.374321 344.795624,96.601059 
	C345.696045,100.840652 348.676208,103.158394 352.905518,103.434311 
	C355.854523,103.626709 358.712830,103.025887 359.757080,98.877441 
	C354.746124,99.384888 348.398346,102.918701 347.922363,94.459999 
	C347.687622,90.287949 351.148438,89.112022 355.733673,89.965424 
M75.878296,99.509888 
	C70.751320,100.451759 69.364044,99.476532 69.183540,94.609543 
	C69.080086,91.820015 69.164795,89.023514 69.164795,86.230148 
	C64.925499,89.541901 65.387436,98.646004 68.597839,101.491219 
	C71.695206,104.236267 76.245903,104.043266 78.918365,101.053497 
	C81.772003,97.861038 81.849365,88.890602 78.719307,86.037933 
	C77.956551,90.495682 77.232208,94.728920 75.878296,99.509888 
M284.407440,89.143379 
	C284.407440,93.730125 284.407440,98.316879 284.407440,102.849838 
	C288.182770,102.849838 291.282043,102.849838 294.381317,102.849838 
	C294.472626,102.321205 294.563904,101.792572 294.655182,101.263939 
	C292.412750,100.682480 290.170288,100.101028 287.391968,99.380623 
	C287.391968,95.902534 287.469696,92.291801 287.331665,88.689323 
	C287.301086,87.891045 286.508484,87.121964 286.066742,86.339447 
	C285.517700,86.996162 284.968689,87.652870 284.407440,89.143379 
M147.291962,86.119270 
	C145.140350,86.135788 142.980377,86.052750 140.842529,86.232773 
	C140.243118,86.283257 139.302078,87.073044 139.257996,87.587196 
	C139.212952,88.112381 139.967972,88.958359 140.568832,89.229843 
	C141.561554,89.678329 142.711792,89.778122 143.705261,90.004288 
	C144.942719,101.132706 145.252686,102.511810 147.219604,103.211685 
	C147.219604,98.652237 147.219604,94.288704 147.219604,91.061897 
	C149.586853,89.433342 151.020737,88.446899 152.454620,87.460457 
	C151.026840,87.013443 149.599045,86.566422 147.291962,86.119270 
M297.084900,100.998634 
	C298.732178,105.742775 302.632721,102.792465 305.484253,103.363518 
	C305.885986,103.443970 306.510681,102.410873 307.032196,101.893219 
	C305.046844,101.228233 303.060883,100.565079 301.077393,99.894569 
	C300.928925,99.844376 300.798187,99.741692 300.375549,99.503624 
	C300.125244,95.178856 299.863403,90.654793 299.601532,86.130737 
	C298.758545,86.158623 297.915588,86.186516 297.072601,86.214401 
	C297.072601,90.840012 297.072601,95.465630 297.084900,100.998634 
z"/>
<path fill="#083886" opacity="1.000000" stroke="none" 
	d="
M177.000717,69.351837 
	C171.001205,69.350838 165.491440,69.526634 160.009155,69.216568 
	C158.745056,69.145073 157.575119,67.408768 156.361847,66.438583 
	C156.678055,65.921654 156.994278,65.404716 157.310501,64.887787 
	C162.078766,64.887787 166.847046,64.887787 172.022461,64.887787 
	C172.022461,47.040215 172.022461,29.612326 172.022461,11.717554 
	C175.310196,11.717554 178.190094,11.717554 181.450806,11.717554 
	C181.666016,13.199429 181.919266,14.943447 182.239685,17.149815 
	C184.878769,17.149815 187.597000,17.149815 190.659286,17.149815 
	C190.852524,15.638454 191.079132,13.866306 191.359894,11.670485 
	C194.019852,11.670485 196.744476,11.670485 199.836472,11.670485 
	C200.118835,13.348574 200.434006,15.221601 200.789719,17.335546 
	C203.542923,17.335546 206.125153,17.335546 209.009369,17.335546 
	C209.265945,15.477657 209.508377,13.722179 209.799500,11.614095 
	C212.561493,11.614095 215.304367,11.614095 218.660675,11.614095 
	C218.660675,29.014034 218.660675,46.575714 218.660675,64.695053 
	C224.142120,64.695053 229.044998,64.695053 233.861664,64.695053 
	C235.430603,68.843048 233.582962,69.400551 230.498138,69.387741 
	C212.832504,69.314323 195.166397,69.352013 177.000717,69.351837 
M188.803833,64.855423 
	C193.887894,64.855423 198.971954,64.855423 204.226135,64.855423 
	C204.226135,59.387890 204.574463,54.422905 204.120483,49.532394 
	C203.728134,45.305748 200.840530,42.656551 196.551071,42.204365 
	C192.531189,41.780594 188.566223,43.338524 187.994583,47.340408 
	C187.183243,53.020317 187.841187,58.910107 188.803833,64.855423 
z"/>
<path fill="#E76067" opacity="1.000000" stroke="none" 
	d="
M94.387505,101.148468 
	C92.071777,99.122337 90.048447,96.916344 87.764877,94.426628 
	C87.545235,97.338463 87.323624,100.276543 87.102005,103.214622 
	C86.718056,103.326401 86.334114,103.438187 85.950165,103.549965 
	C85.431801,102.789719 84.493896,102.044960 84.465141,101.266632 
	C84.311989,97.120766 84.293304,92.962830 84.456200,88.818047 
	C84.491173,87.928154 85.612793,86.281670 85.984238,86.349541 
	C87.255623,86.581871 88.940475,87.114166 89.514359,88.091698 
	C90.906158,90.462418 91.761185,93.148277 92.866524,95.788406 
	C96.729729,93.133087 94.705780,85.793129 101.813667,86.266449 
	C101.813667,92.033455 101.813667,97.564766 101.813667,103.096077 
	C101.224907,103.210838 100.636147,103.325600 100.047394,103.440361 
	C99.567871,100.220131 99.088356,96.999908 98.495888,93.021126 
	C97.044121,96.044678 95.862007,98.506638 94.387505,101.148468 
z"/>
<path fill="#E8666D" opacity="1.000000" stroke="none" 
	d="
M15.003082,96.873459 
	C16.605515,95.123840 17.946091,93.433952 19.057064,91.604614 
	C20.123148,89.849190 20.951170,87.949188 21.935596,86.010750 
	C24.875126,89.174530 24.728153,100.913055 21.374735,103.735359 
	C21.076202,101.334343 20.828342,99.340881 20.527344,96.920052 
	C18.502146,98.625595 16.673471,101.369804 14.792508,101.406136 
	C12.964524,101.441429 11.082913,98.700157 9.282387,97.225273 
	C9.140154,98.745316 8.929257,100.999161 8.688471,103.572449 
	C5.636377,101.329033 5.094856,90.920029 7.452632,85.897240 
	C9.924554,89.671379 12.282698,93.271797 15.003082,96.873459 
z"/>
<path fill="#E8666D" opacity="1.000000" stroke="none" 
	d="
M255.835327,100.802933 
	C250.824570,103.397743 251.605179,97.261856 248.307983,96.504829 
	C248.131531,98.758987 247.954758,101.017197 247.742813,103.724678 
	C244.522888,101.118294 244.113052,90.351250 246.626999,85.956398 
	C248.950241,89.762787 251.197418,93.444534 254.004654,98.043900 
	C256.716949,93.536156 258.938141,89.844612 261.180725,86.117477 
	C264.033630,89.665375 263.655060,101.315018 260.298462,103.503281 
	C260.038849,101.255608 259.806458,99.243553 259.445679,96.120140 
	C257.933990,98.082748 256.994873,99.301979 255.835327,100.802933 
z"/>
<path fill="#E8636A" opacity="1.000000" stroke="none" 
	d="
M125.936264,86.738083 
	C128.186172,90.012146 130.158707,93.021393 132.869736,97.157265 
	C133.435623,92.642105 133.845398,89.372597 134.255173,86.103081 
	C134.955368,86.137627 135.655579,86.172173 136.355774,86.206711 
	C136.355774,91.625389 136.355774,97.044060 136.355774,102.462738 
	C134.858063,102.251968 132.683212,102.589401 131.987152,101.729622 
	C129.723694,98.933800 128.001221,95.700020 125.345474,91.483742 
	C125.123192,96.229980 124.961014,99.693008 124.755455,104.082207 
	C123.405846,102.899208 122.260666,102.370987 122.240021,101.801949 
	C122.077217,97.314697 121.977730,92.809639 122.273567,88.337502 
	C122.319412,87.644470 124.477562,87.091171 125.936264,86.738083 
z"/>
<path fill="#E86269" opacity="1.000000" stroke="none" 
	d="
M49.866768,102.966324 
	C48.955753,100.854736 48.228493,98.631836 48.055355,96.366600 
	C47.816395,93.240166 47.995430,90.081772 47.995430,86.964127 
	C52.004723,84.795532 52.725231,88.179039 54.089027,90.116844 
	C55.575954,92.229622 56.843830,94.496574 58.936077,97.872337 
	C59.302177,93.020325 59.559448,89.610695 59.816715,86.201057 
	C60.353619,86.207054 60.890522,86.213043 61.427422,86.219032 
	C63.577969,91.648338 61.990219,97.370583 62.489235,103.500359 
	C55.203285,102.900070 55.769756,95.424644 51.325912,92.729126 
	C50.976387,96.164574 50.637001,99.500351 49.866768,102.966324 
z"/>
<path fill="#E86167" opacity="1.000000" stroke="none" 
	d="
M218.583557,89.508728 
	C219.572418,88.088402 220.407562,86.594597 221.574646,86.260551 
	C223.264267,85.776947 225.221497,85.940392 227.012039,86.195869 
	C228.261597,86.374153 229.423233,87.168823 230.624130,87.688156 
	C229.449432,88.263245 228.324600,89.022690 227.085052,89.358017 
	C225.994873,89.652916 224.648834,89.173103 223.653824,89.595757 
	C222.823151,89.948616 221.856949,91.105118 221.843521,91.920425 
	C221.831787,92.631866 222.953400,93.573021 223.785278,94.019722 
	C224.436035,94.369179 225.477890,93.920517 226.224091,94.178711 
	C227.292587,94.548409 228.250015,95.239136 229.254868,95.792801 
	C228.244766,96.332909 227.287521,97.054565 226.211380,97.367897 
	C224.815613,97.774300 223.325165,97.855530 221.875473,98.076736 
	C221.870361,98.603096 221.865234,99.129448 221.860107,99.655800 
	C224.829285,100.014603 227.798462,100.373413 230.767624,100.732216 
	C230.777023,101.437714 230.786423,102.143219 230.795822,102.848717 
	C227.021591,103.126724 223.247375,103.404732 218.578201,103.748665 
	C218.578201,98.770973 218.578201,94.362251 218.583557,89.508728 
z"/>
<path fill="#E8656C" opacity="1.000000" stroke="none" 
	d="
M373.739807,90.211975 
	C375.511719,94.516281 377.138672,98.473747 379.490967,104.195641 
	C373.070770,100.336899 367.632507,97.946930 362.432312,104.663284 
	C362.235199,104.025269 362.038086,103.387253 361.840973,102.749245 
	C363.883881,97.766434 365.872589,92.759949 368.028778,87.826653 
	C368.347626,87.097107 369.948761,86.120064 370.123840,86.264816 
	C371.400452,87.320244 372.464020,88.633385 373.739807,90.211975 
z"/>
<path fill="#E8656B" opacity="1.000000" stroke="none" 
	d="
M281.343506,100.455597 
	C280.867279,101.550255 280.253479,102.308609 279.639648,103.066956 
	C275.495331,98.955696 271.449829,99.261597 267.385040,103.238190 
	C267.112183,103.505112 266.186035,103.104279 265.069061,102.942284 
	C267.189056,97.795364 269.010651,92.857201 271.252777,88.118004 
	C272.655151,85.153763 274.779053,85.183487 276.198090,88.227242 
	C278.014221,92.122787 279.549591,96.149246 281.343506,100.455597 
z"/>
<path fill="#E75F66" opacity="1.000000" stroke="none" 
	d="
M110.882248,89.655182 
	C107.884659,93.958290 110.659637,93.979538 113.668549,94.220352 
	C114.816727,94.312241 115.887886,95.366562 116.994141,95.982277 
	C115.916656,96.456429 114.874687,97.057739 113.752327,97.371193 
	C112.469215,97.729530 111.114609,97.831879 109.791069,98.045456 
	C109.775146,98.552055 109.759216,99.058655 109.743294,99.565247 
	C111.337502,99.775452 112.950096,99.896919 114.520447,100.222275 
	C115.927139,100.513741 117.287315,101.029724 118.668007,101.446655 
	C118.536407,101.961777 118.404800,102.476891 118.273201,102.992004 
	C114.592392,102.992004 110.911591,102.992004 106.800095,102.992004 
	C106.800095,97.704063 106.800095,92.336243 106.800095,86.138672 
	C109.814827,86.138672 112.897179,86.020370 115.959618,86.215157 
	C116.811096,86.269310 117.603584,87.250923 118.423134,87.807037 
	C117.555122,88.337608 116.742508,89.148972 115.806267,89.333664 
	C114.361282,89.618736 112.831680,89.474846 110.882248,89.655182 
z"/>
<path fill="#E8666C" opacity="1.000000" stroke="none" 
	d="
M169.514343,89.729080 
	C174.253952,97.906654 166.954300,104.442696 161.254517,103.411537 
	C157.545914,102.740616 154.243561,100.768234 154.117630,96.933929 
	C154.021667,94.012253 155.170914,90.446938 157.026077,88.215332 
	C159.384491,85.378372 163.182541,85.307579 166.576981,87.278282 
	C167.560532,87.849312 168.384323,88.695557 169.514343,89.729080 
M164.706650,89.733536 
	C161.111725,88.542358 158.010178,89.574364 157.193985,93.172829 
	C156.772003,95.033356 158.217484,98.838295 159.562973,99.233658 
	C161.754166,99.877518 165.342087,99.249947 166.917267,97.706436 
	C169.386658,95.286667 168.325455,92.173500 164.706650,89.733536 
z"/>
<path fill="#E75F66" opacity="1.000000" stroke="none" 
	d="
M209.134003,86.405853 
	C214.591537,89.379509 216.395706,92.933922 215.026947,97.377380 
	C213.487549,102.374794 209.510605,104.039688 200.971603,103.057114 
	C200.971603,97.722954 200.971603,92.334320 200.971603,86.283905 
	C203.596176,86.283905 206.172165,86.283905 209.134003,86.405853 
M210.880844,98.742485 
	C211.186188,98.350304 211.786240,97.927353 211.749039,97.570953 
	C211.509262,95.274719 211.798431,92.493492 210.582504,90.866722 
	C209.632385,89.595612 206.360291,88.893303 204.867050,89.574913 
	C203.732315,90.092880 203.601059,93.161530 203.343964,95.136986 
	C203.142715,96.683334 203.433090,98.293663 203.538651,100.614113 
	C206.225357,100.072433 208.245972,99.665047 210.880844,98.742485 
z"/>
<path fill="#E8656C" opacity="1.000000" stroke="none" 
	d="
M35.968540,103.464127 
	C30.903044,102.989098 27.856373,100.517212 27.186445,95.808334 
	C26.608868,91.748581 28.531702,88.777405 32.214321,87.008400 
	C35.979698,85.199631 39.333660,86.077637 42.201893,88.874100 
	C47.283005,93.828079 44.195522,103.039665 35.968540,103.464127 
M39.945858,98.704994 
	C42.703426,95.301414 42.322487,92.130745 38.601578,89.985825 
	C35.375019,88.125870 32.242088,89.194145 30.788307,92.583328 
	C30.151215,94.068581 30.477625,96.643181 31.417768,97.988487 
	C33.387787,100.807487 36.370972,100.877563 39.945858,98.704994 
z"/>
<path fill="#E8676E" opacity="1.000000" stroke="none" 
	d="
M310.270020,89.342819 
	C313.723785,85.921700 317.354797,85.051811 321.350281,87.338730 
	C324.671814,89.239906 326.911346,92.513817 325.556488,95.991379 
	C324.452148,98.825943 321.647034,102.102921 318.935547,102.880524 
	C316.462738,103.589691 312.462921,101.929909 310.284241,100.010818 
	C307.077148,97.185867 307.539520,93.175446 310.270020,89.342819 
M321.032074,98.727486 
	C323.821777,95.372116 323.549286,92.215347 319.802856,90.026466 
	C316.597870,88.153938 313.401031,89.117088 311.993408,92.520340 
	C311.339203,94.102020 311.814331,97.587654 312.861633,98.134727 
	C314.988800,99.245842 317.853180,98.945473 321.032074,98.727486 
z"/>
<path fill="#E8646A" opacity="1.000000" stroke="none" 
	d="
M342.110748,92.144119 
	C342.461365,96.097176 336.297668,98.763916 342.044586,103.026184 
	C341.439606,103.221344 340.834656,103.416496 340.229706,103.611649 
	C339.113129,102.837959 337.970428,102.098839 336.887207,101.280968 
	C335.774231,100.440636 334.719330,99.523376 333.639038,98.639771 
	C333.016937,99.809479 332.453918,101.016777 331.744934,102.131203 
	C331.442383,102.606781 330.835114,102.888466 329.596558,103.865501 
	C329.596558,97.687256 329.596558,92.274620 329.596558,86.806252 
	C337.345734,84.919800 340.016693,85.949303 342.110748,92.144119 
M335.303070,89.183968 
	C330.184967,89.089874 332.107056,92.297417 332.467957,96.246788 
	C335.097107,94.934647 337.048676,93.960663 339.000244,92.986679 
	C338.042358,91.727325 337.084473,90.467964 335.303070,89.183968 
z"/>
<path fill="#E8656C" opacity="1.000000" stroke="none" 
	d="
M175.895111,103.376648 
	C173.584442,101.466667 174.260788,100.466408 176.606552,100.214020 
	C178.632095,99.996086 180.678772,99.974365 182.716095,99.865898 
	C182.837601,99.401123 182.959106,98.936340 183.080597,98.471558 
	C181.667297,97.714226 180.093948,97.151726 178.878647,96.153366 
	C177.108887,94.699509 175.102142,93.161606 174.190399,91.198013 
	C173.755249,90.260826 175.318848,87.288727 176.484833,86.941055 
	C179.058563,86.173622 181.954056,86.442757 184.718781,86.432648 
	C184.960007,86.431755 185.556885,87.692963 185.372452,88.013824 
	C185.027725,88.613586 184.270828,89.258362 183.614365,89.344772 
	C181.553314,89.616089 179.459244,89.636574 177.377960,89.754196 
	C177.229187,90.181023 177.080414,90.607841 176.931641,91.034668 
	C177.984756,91.726372 178.958740,92.618805 180.106216,93.071220 
	C183.239380,94.306549 186.856705,95.235985 185.866104,99.720039 
	C184.965912,103.794830 181.471069,103.582001 178.257782,103.502899 
	C177.595566,103.486595 176.933426,103.466721 175.895111,103.376648 
z"/>
<path fill="#E9686F" opacity="1.000000" stroke="none" 
	d="
M355.363098,89.826218 
	C351.148438,89.112022 347.687622,90.287949 347.922363,94.459999 
	C348.398346,102.918701 354.746124,99.384888 359.757080,98.877441 
	C358.712830,103.025887 355.854523,103.626709 352.905518,103.434311 
	C348.676208,103.158394 345.696045,100.840652 344.795624,96.601059 
	C343.897919,92.374321 345.554626,89.031242 349.428284,87.113441 
	C353.221710,85.235359 356.693634,85.715805 360.538696,90.315140 
	C358.105988,90.138084 356.919830,90.051750 355.363098,89.826218 
z"/>
<path fill="#E8676E" opacity="1.000000" stroke="none" 
	d="
M76.193085,99.236023 
	C77.232208,94.728920 77.956551,90.495682 78.719307,86.037933 
	C81.849365,88.890602 81.772003,97.861038 78.918365,101.053497 
	C76.245903,104.043266 71.695206,104.236267 68.597839,101.491219 
	C65.387436,98.646004 64.925499,89.541901 69.164795,86.230148 
	C69.164795,89.023514 69.080086,91.820015 69.183540,94.609543 
	C69.364044,99.476532 70.751320,100.451759 76.193085,99.236023 
z"/>
<path fill="#E75A62" opacity="1.000000" stroke="none" 
	d="
M284.413544,88.726486 
	C284.968689,87.652870 285.517700,86.996162 286.066742,86.339447 
	C286.508484,87.121964 287.301086,87.891045 287.331665,88.689323 
	C287.469696,92.291801 287.391968,95.902534 287.391968,99.380623 
	C290.170288,100.101028 292.412750,100.682480 294.655182,101.263939 
	C294.563904,101.792572 294.472626,102.321205 294.381317,102.849838 
	C291.282043,102.849838 288.182770,102.849838 284.407440,102.849838 
	C284.407440,98.316879 284.407440,93.730125 284.413544,88.726486 
z"/>
<path fill="#E8636A" opacity="1.000000" stroke="none" 
	d="
M147.731613,86.119339 
	C149.599045,86.566422 151.026840,87.013443 152.454620,87.460449 
	C151.020737,88.446899 149.586853,89.433342 147.219604,91.061897 
	C147.219604,94.288704 147.219604,98.652237 147.219604,103.211685 
	C145.252686,102.511810 144.942719,101.132706 143.705261,90.004288 
	C142.711792,89.778122 141.561554,89.678329 140.568832,89.229843 
	C139.967972,88.958359 139.212952,88.112381 139.257996,87.587196 
	C139.302078,87.073044 140.243118,86.283257 140.842529,86.232773 
	C142.980377,86.052750 145.140350,86.135788 147.731613,86.119339 
z"/>
<path fill="#E96970" opacity="1.000000" stroke="none" 
	d="
M297.078735,100.544937 
	C297.072601,95.465630 297.072601,90.840012 297.072601,86.214401 
	C297.915588,86.186516 298.758545,86.158623 299.601532,86.130737 
	C299.863403,90.654793 300.125244,95.178856 300.375549,99.503624 
	C300.798187,99.741692 300.928925,99.844376 301.077393,99.894569 
	C303.060883,100.565079 305.046844,101.228233 307.032196,101.893219 
	C306.510681,102.410873 305.885986,103.443970 305.484253,103.363518 
	C302.632721,102.792465 298.732178,105.742775 297.078735,100.544937 
z"/>
<path fill="#F3F5F9" opacity="1.000000" stroke="none" 
	d="
M188.337555,64.782822 
	C187.841187,58.910107 187.183243,53.020317 187.994583,47.340408 
	C188.566223,43.338524 192.531189,41.780594 196.551071,42.204365 
	C200.840530,42.656551 203.728134,45.305748 204.120483,49.532394 
	C204.574463,54.422905 204.226135,59.387890 204.226135,64.855423 
	C198.971954,64.855423 193.887894,64.855423 188.337555,64.782822 
z"/>
<path fill="#FDF4F5" opacity="1.000000" stroke="none" 
	d="
M165.044586,89.915543 
	C168.325455,92.173500 169.386658,95.286667 166.917267,97.706436 
	C165.342087,99.249947 161.754166,99.877518 159.562973,99.233658 
	C158.217484,98.838295 156.772003,95.033356 157.193985,93.172829 
	C158.010178,89.574364 161.111725,88.542358 165.044586,89.915543 
z"/>
<path fill="#FCEEEE" opacity="1.000000" stroke="none" 
	d="
M210.573700,99.000076 
	C208.245972,99.665047 206.225357,100.072433 203.538651,100.614113 
	C203.433090,98.293663 203.142715,96.683334 203.343964,95.136986 
	C203.601059,93.161530 203.732315,90.092880 204.867050,89.574913 
	C206.360291,88.893303 209.632385,89.595612 210.582504,90.866722 
	C211.798431,92.493492 211.509262,95.274719 211.749039,97.570953 
	C211.786240,97.927353 211.186188,98.350304 210.573700,99.000076 
z"/>
<path fill="#FDF3F4" opacity="1.000000" stroke="none" 
	d="
M39.643112,98.953186 
	C36.370972,100.877563 33.387787,100.807487 31.417768,97.988487 
	C30.477625,96.643181 30.151215,94.068581 30.788307,92.583328 
	C32.242088,89.194145 35.375019,88.125870 38.601578,89.985825 
	C42.322487,92.130745 42.703426,95.301414 39.643112,98.953186 
z"/>
<path fill="#FDF4F5" opacity="1.000000" stroke="none" 
	d="
M320.722900,98.977173 
	C317.853180,98.945473 314.988800,99.245842 312.861633,98.134727 
	C311.814331,97.587654 311.339203,94.102020 311.993408,92.520340 
	C313.401031,89.117088 316.597870,88.153938 319.802856,90.026466 
	C323.549286,92.215347 323.821777,95.372116 320.722900,98.977173 
z"/>
<path fill="#FDF1F2" opacity="1.000000" stroke="none" 
	d="
M335.714844,89.196289 
	C337.084473,90.467964 338.042358,91.727325 339.000244,92.986679 
	C337.048676,93.960663 335.097107,94.934647 332.467957,96.246788 
	C332.107056,92.297417 330.184967,89.089874 335.714844,89.196289 
z"/>
</svg>